<?xml version="1.0" encoding="UTF-8" standalone="no"?>
<!-- Created with Inkscape (http://www.inkscape.org/) -->

<svg
   width="243"
   height="243"
   viewBox="0 0 64.29375 64.293749"
   version="1.1"
   id="svg1"
   xml:space="preserve"
   sodipodi:docname="Area-427_Internal_Logo.svg"
   inkscape:version="1.3 (0e150ed6c4, 2023-07-21)"
   xmlns:inkscape="http://www.inkscape.org/namespaces/inkscape"
   xmlns:sodipodi="http://sodipodi.sourceforge.net/DTD/sodipodi-0.dtd"
   xmlns="http://www.w3.org/2000/svg"
   xmlns:svg="http://www.w3.org/2000/svg"><sodipodi:namedview
     id="namedview1"
     pagecolor="#505050"
     bordercolor="#eeeeee"
     borderopacity="1"
     inkscape:showpageshadow="0"
     inkscape:pageopacity="0"
     inkscape:pagecheckerboard="0"
     inkscape:deskcolor="#505050"
     inkscape:document-units="mm"
     inkscape:zoom="2.8284271"
     inkscape:cx="129.04699"
     inkscape:cy="123.92046"
     inkscape:window-width="1920"
     inkscape:window-height="1057"
     inkscape:window-x="-8"
     inkscape:window-y="-8"
     inkscape:window-maximized="1"
     inkscape:current-layer="layer1"
     showgrid="false" /><defs
     id="defs1"><inkscape:path-effect
       effect="mirror_symmetry"
       start_point="32.146875,3.8509277"
       end_point="32.146875,60.443832"
       center_point="32.146875,32.14738"
       id="path-effect7"
       is_visible="true"
       lpeversion="1.2"
       lpesatellites=""
       mode="free"
       discard_orig_path="false"
       fuse_paths="false"
       oposite_fuse="false"
       split_items="false"
       split_open="false"
       link_styles="false" /><inkscape:path-effect
       effect="mirror_symmetry"
       start_point="-84.047942,-341.3639"
       end_point="-84.047942,-230.73304"
       center_point="-84.047942,-286.04847"
       id="path-effect3"
       is_visible="true"
       lpeversion="1.2"
       lpesatellites=""
       mode="free"
       discard_orig_path="false"
       fuse_paths="true"
       oposite_fuse="false"
       split_items="false"
       split_open="false"
       link_styles="false" /><inkscape:path-effect
       effect="mirror_symmetry"
       start_point="-54.821833,-230.73304"
       end_point="-54.821833,-341.3639"
       center_point="-54.821833,-286.04847"
       id="path-effect2"
       is_visible="true"
       lpeversion="1.2"
       lpesatellites=""
       mode="free"
       discard_orig_path="false"
       fuse_paths="false"
       oposite_fuse="false"
       split_items="false"
       split_open="false"
       link_styles="false" /><inkscape:path-effect
       effect="mirror_symmetry"
       start_point="-81.459768,-398.36"
       end_point="-81.459768,-188.5"
       center_point="-81.459768,-293.43"
       id="path-effect1"
       is_visible="true"
       lpeversion="1.2"
       lpesatellites=""
       mode="free"
       discard_orig_path="false"
       fuse_paths="true"
       oposite_fuse="false"
       split_items="false"
       split_open="false"
       link_styles="false" /><inkscape:path-effect
       effect="mirror_symmetry"
       start_point="-81.46,-398.36"
       end_point="-81.46,-188.5"
       center_point="-81.46,-293.43"
       id="path-effect12"
       is_visible="true"
       lpeversion="1.2"
       lpesatellites=""
       mode="free"
       discard_orig_path="false"
       fuse_paths="false"
       oposite_fuse="false"
       split_items="false"
       split_open="false"
       link_styles="false" /><clipPath
       id="clipPath43626"><ellipse
         cx="104.3"
         cy="136.21"
         rx="49.508"
         ry="49.508"
         fill="none"
         stroke="#f00"
         stroke-linecap="round"
         stroke-width=".98314"
         style="paint-order:stroke fill markers"
         id="ellipse1" /></clipPath></defs><g
     inkscape:label="Layer 1"
     inkscape:groupmode="layer"
     id="layer1"><g
       id="surface1"
       transform="matrix(4.1913711,0,0,4.1913711,6.9986484,12.678748)"
       style="display:inline;stroke:#000000;stroke-opacity:1"><path
         style="fill:none;stroke:#000000;stroke-width:6;stroke-linecap:butt;stroke-linejoin:miter;stroke-miterlimit:10;stroke-opacity:1"
         d="M 85,85 C 85,98.789062 73.789062,110 60,110 46.210938,110 35,98.789062 35,85 35,71.210938 46.210938,60 60,60 73.789062,60 85,71.210938 85,85 Z m 0,0"
         transform="matrix(0.1,0,0,-0.1,0,12)"
         id="path1-2" /><path
         style="fill:none;stroke:#000000;stroke-width:6;stroke-linecap:butt;stroke-linejoin:miter;stroke-miterlimit:10;stroke-opacity:1"
         d="M 60,10 V 60"
         transform="matrix(0.1,0,0,-0.1,0,12)"
         id="path2-3" /><path
         style="fill:none;stroke:#000000;stroke-width:6;stroke-linecap:butt;stroke-linejoin:miter;stroke-miterlimit:10;stroke-opacity:1"
         d="M 35,35 H 85"
         transform="matrix(0.1,0,0,-0.1,0,12)"
         id="path3-0" /></g><g
       id="g7"
       style="fill:#000000"><path
         d="m 32.146875,3.8509277 -7.611938,0.00517 c -0.04234,0 -0.07772,0.010053 -0.105937,0.029456 -0.02822,0.019403 -0.04945,0.048528 -0.06356,0.087333 -0.497417,1.3828875 -0.980846,2.7735927 -1.450041,4.1723552 -0.02778,0.08158 -0.06167,0.1572962 -0.101802,0.2268595 -0.04013,0.069563 -0.08653,0.1331392 -0.13901,0.190686 -0.05248,0.057547 -0.110877,0.1089822 -0.1757,0.1545126 -0.06482,0.04553 -0.135737,0.084825 -0.212907,0.118339 -0.656166,0.2844267 -1.293696,0.5894286 -1.912545,0.9146728 -0.618848,0.3252442 -1.218875,0.6710852 -1.800406,1.0371462 -0.581532,0.366062 -1.144572,0.752223 -1.688786,1.159103 -0.544215,0.406879 -1.069751,0.834395 -1.576648,1.282092 -0.506897,0.447696 -0.995447,0.915535 -1.465027,1.404049 -0.46958,0.488514 -0.92011,0.997707 -1.352372,1.527038 -0.432263,0.529332 -0.845806,1.078846 -1.240751,1.648995 -0.394946,0.570149 -0.771502,1.161019 -1.129131,1.771985 -0.2645823,0.451114 -0.5164541,0.948408 -0.7611933,1.460376 -0.2447393,0.511968 -0.4823067,1.038387 -0.7177857,1.547709 -0.015875,0.03572 -0.038365,0.06741 -0.066146,0.09353 -0.027781,0.02613 -0.060627,0.04671 -0.097669,0.05994 l -4.4875814,1.624707 c -0.075847,0.02734 -0.1326086,0.06772 -0.1705322,0.121956 -0.037923,0.05424 -0.056844,0.12195 -0.056844,0.203089 l -0.013436,15.798519 c -8.82e-4,0.04321 0.00858,0.07934 0.028422,0.108004 0.019844,0.02866 0.049864,0.04997 0.090434,0.06408 1.5063596,0.536223 3.0198206,1.050417 4.5402913,1.542542 0.1684512,0.05468 0.3092319,0.124926 0.4216797,0.211356 0.056224,0.04322 0.1055715,0.09044 0.1477946,0.141594 0.042223,0.05115 0.077198,0.106274 0.1054199,0.165364 0.1778218,0.37207 0.3620867,0.737747 0.5524211,1.096574 0.1903344,0.358827 0.386781,0.710682 0.589628,1.056267 0.202847,0.345584 0.411992,0.684651 0.627352,1.016992 0.215359,0.332341 0.436686,0.658103 0.664558,0.977201 0.227873,0.319098 0.462415,0.631555 0.7028,0.937411 0.240385,0.305855 0.486592,0.605007 0.73949,0.897619 0.252897,0.292613 0.51232,0.578976 0.77773,0.858346 0.26541,0.279369 0.537015,0.551911 0.814937,0.818038 0.277923,0.266126 0.562226,0.52588 0.852661,0.778763 0.290436,0.252884 0.586921,0.498816 0.889869,0.738457 0.302947,0.23964 0.612131,0.472784 0.927592,0.699182 0.31546,0.226398 0.637343,0.446236 0.965315,0.659391 0.327973,0.213155 0.662038,0.419689 1.002523,0.619601 0.340485,0.199911 0.687249,0.39314 1.040247,0.579809 0.352998,0.186669 0.71246,0.366593 1.07797,0.540019 0.365511,0.173426 0.737154,0.340561 1.115177,0.500744 0.07541,0.03175 0.141987,0.07855 0.196888,0.136426 0.0549,0.05788 0.09831,0.126648 0.12609,0.202055 l 1.632459,4.487581 c 0.01411,0.0388 0.03534,0.06741 0.06356,0.08682 0.02822,0.0194 0.06309,0.02945 0.10542,0.02945 l 7.599019,0.0036 v -2.168343 h -6.008936 c -0.03969,0 -0.07455,-0.0081 -0.105419,-0.02532 -0.03087,-0.0172 -0.05754,-0.04312 -0.07958,-0.07751 -0.501806,-1.055028 -0.772826,-1.630468 -1.02371,-2.198316 -0.250885,-0.567848 -0.481485,-1.128423 -0.902271,-2.15439 -0.39048,-0.152577 -0.773831,-0.311968 -1.150317,-0.479041 -0.376487,-0.167073 -0.746484,-0.341395 -1.108976,-0.522965 -0.362493,-0.18157 -0.717587,-0.370824 -1.066085,-0.566891 -0.348499,-0.196067 -0.690239,-0.399218 -1.024744,-0.609782 -0.334505,-0.210564 -0.661858,-0.428129 -0.982369,-0.65319 -0.320511,-0.225061 -0.633994,-0.457557 -0.940511,-0.697115 -0.306517,-0.239558 -0.60613,-0.486468 -0.898653,-0.740523 -0.292523,-0.254055 -0.578267,-0.51538 -0.856795,-0.783932 -0.278529,-0.268551 -0.549886,-0.544291 -0.814421,-0.827339 -0.264535,-0.283049 -0.522022,-0.573202 -0.772563,-0.870748 -0.25054,-0.297546 -0.494157,-0.60263 -0.730704,-0.914673 -0.236547,-0.312043 -0.466294,-0.631025 -0.688847,-0.957564 -0.222553,-0.32654 -0.437913,-0.660453 -0.646472,-1.00149 -0.208559,-0.341036 -0.41005,-0.689364 -0.604615,-1.044897 -0.194565,-0.355534 -0.382185,-0.718275 -0.562756,-1.088306 -0.180571,-0.37003 -0.354321,-0.747186 -0.520898,-1.131714 -0.03351,-0.07761 -0.07851,-0.142861 -0.135393,-0.195336 -0.05689,-0.05248 -0.125415,-0.09255 -0.205672,-0.11989 l -4.2229989,-1.45209 c -0.056885,-0.01984 -0.1036836,-0.05653 -0.1364257,-0.102836 -0.032742,-0.0463 -0.05116,-0.102215 -0.05116,-0.161747 l -0.00258,-5.490104 c 0,-0.03969 0.00961,-0.06956 0.029456,-0.0894 0.019844,-0.01984 0.049713,-0.02997 0.0894,-0.02997 l 3.4581868,-0.0026 c 0.044979,0 0.078721,0.0111 0.100769,0.03359 0.022048,0.02249 0.032403,0.05631 0.031523,0.101286 l -0.00517,1.894458 c 0,0.02913 0.015193,0.05325 0.03669,0.06615 0.021497,0.01289 0.049279,0.01455 0.074414,0 l 5.3366248,-3.071647 c 0.02514,-0.01455 0.03772,-0.03909 0.03772,-0.06356 0,-0.02448 -0.01259,-0.04901 -0.03772,-0.06356 l -5.334041,-3.06648 c -0.038805,-0.02205 -0.06793,-0.02756 -0.087333,-0.01654 -0.019403,0.01103 -0.028939,0.03859 -0.028939,0.08268 l 0.00775,1.891874 c 0,0.04411 -0.011024,0.07724 -0.033073,0.09974 -0.022049,0.02249 -0.055122,0.03429 -0.099219,0.03514 l -3.4499186,0.01034 c -0.041452,0 -0.072809,-0.01028 -0.093534,-0.03101 -0.020726,-0.02073 -0.031006,-0.05157 -0.031006,-0.09302 l 0.00258,-4.976958 c 0,-0.0538 0.012588,-0.09864 0.037724,-0.134358 0.025135,-0.03572 0.062901,-0.06246 0.1131714,-0.0801 l 4.0374792,-1.460376 c 0.05159,-0.01852 0.09806,-0.04738 0.136426,-0.08475 0.03836,-0.03737 0.06852,-0.08328 0.08837,-0.134876 0.159632,-0.410765 0.327002,-0.813511 0.502295,-1.208711 0.175293,-0.395201 0.358366,-0.782568 0.54932,-1.162203 0.190955,-0.379636 0.38973,-0.751624 0.596346,-1.115694 0.206616,-0.364071 0.421094,-0.72068 0.643372,-1.069186 0.222277,-0.348505 0.452458,-0.689219 0.690397,-1.02216 0.237939,-0.33294 0.483823,-0.657758 0.737423,-0.975134 0.2536,-0.317376 0.515186,-0.626815 0.784448,-0.928625 0.269261,-0.301811 0.546034,-0.595871 0.830957,-0.882117 0.284923,-0.286246 0.577915,-0.564927 0.878499,-0.835608 0.300585,-0.270681 0.608763,-0.533466 0.925008,-0.788582 0.316246,-0.255116 0.640644,-0.502523 0.972551,-0.742074 0.331907,-0.239551 0.671491,-0.471579 1.019059,-0.695565 0.347569,-0.223986 0.702855,-0.440118 1.066085,-0.648539 0.36323,-0.208421 0.734219,-0.409174 1.11311,-0.60203 0.378891,-0.192857 0.765584,-0.377714 1.160136,-0.555005 0.394553,-0.177292 0.796948,-0.34677 1.207162,-0.508496 0.37393,-0.7275864 0.560917,-1.0912956 0.805118,-1.636593 0.244202,-0.5452975 0.545796,-1.2722496 1.150318,-2.7264486 0.02293,-0.033514 0.05034,-0.058691 0.08165,-0.075448 0.03131,-0.016757 0.06676,-0.024805 0.106453,-0.024805 h 6.005835 z m 0,0 7.611938,0.00517 c 0.04234,0 0.07772,0.010053 0.105937,0.029456 0.02822,0.019403 0.04945,0.048528 0.06356,0.087333 0.497417,1.3828875 0.980846,2.7735927 1.450041,4.1723552 0.02778,0.08158 0.06167,0.1572962 0.101802,0.2268595 0.04013,0.069563 0.08653,0.1331392 0.13901,0.190686 0.05248,0.057547 0.110877,0.1089822 0.1757,0.1545126 0.06482,0.04553 0.135737,0.084825 0.212907,0.118339 0.656166,0.2844267 1.293696,0.5894286 1.912545,0.9146728 0.618848,0.3252442 1.218875,0.6710852 1.800406,1.0371462 0.581532,0.366062 1.144572,0.752223 1.688786,1.159103 0.544215,0.406879 1.069751,0.834395 1.576648,1.282092 0.506897,0.447696 0.995447,0.915535 1.465027,1.404049 0.46958,0.488514 0.92011,0.997707 1.352372,1.527038 0.432263,0.529332 0.845806,1.078846 1.240751,1.648995 0.394946,0.570149 0.771502,1.161019 1.129131,1.771985 0.264582,0.451114 0.516454,0.948408 0.761193,1.460376 0.24474,0.511968 0.482307,1.038387 0.717786,1.547709 0.01588,0.03572 0.03836,0.06741 0.06615,0.09353 0.02778,0.02613 0.06063,0.04671 0.09767,0.05994 l 4.487581,1.624707 c 0.07585,0.02734 0.132609,0.06772 0.170533,0.121956 0.03792,0.05424 0.05684,0.12195 0.05684,0.203089 l 0.01344,15.798519 c 8.82e-4,0.04321 -0.0086,0.07934 -0.02842,0.108004 -0.01984,0.02866 -0.04986,0.04997 -0.09043,0.06408 -1.50636,0.536223 -3.019821,1.050417 -4.540292,1.542542 -0.168451,0.05468 -0.309232,0.124926 -0.421679,0.211356 -0.05622,0.04322 -0.105572,0.09044 -0.147795,0.141594 -0.04222,0.05115 -0.0772,0.106274 -0.10542,0.165364 -0.177822,0.37207 -0.362087,0.737747 -0.552421,1.096574 -0.190334,0.358827 -0.386781,0.710682 -0.589628,1.056267 -0.202847,0.345584 -0.411992,0.684651 -0.627352,1.016992 -0.215359,0.332341 -0.436686,0.658103 -0.664558,0.977201 -0.227873,0.319098 -0.462415,0.631555 -0.7028,0.937411 -0.240385,0.305855 -0.486592,0.605007 -0.73949,0.897619 -0.252897,0.292613 -0.51232,0.578976 -0.77773,0.858346 -0.26541,0.279369 -0.537015,0.551911 -0.814937,0.818038 -0.277923,0.266126 -0.562226,0.52588 -0.852661,0.778763 -0.290436,0.252884 -0.586921,0.498816 -0.889869,0.738457 -0.302947,0.23964 -0.612131,0.472784 -0.927592,0.699182 -0.31546,0.226398 -0.637343,0.446236 -0.965315,0.659391 -0.327973,0.213155 -0.662038,0.419689 -1.002523,0.619601 -0.340485,0.199911 -0.687249,0.39314 -1.040247,0.579809 -0.352998,0.186669 -0.71246,0.366593 -1.07797,0.540019 -0.365511,0.173426 -0.737154,0.340561 -1.115177,0.500744 -0.07541,0.03175 -0.141987,0.07855 -0.196888,0.136426 -0.0549,0.05788 -0.09831,0.126648 -0.12609,0.202055 l -1.632459,4.487581 c -0.01411,0.0388 -0.03534,0.06741 -0.06356,0.08682 -0.02822,0.0194 -0.06309,0.02945 -0.10542,0.02945 l -7.599019,0.0036 v -2.168343 h 6.008936 c 0.03969,0 0.07455,-0.0081 0.105419,-0.02532 0.03087,-0.0172 0.05754,-0.04312 0.07958,-0.07751 0.501806,-1.055028 0.772826,-1.630468 1.02371,-2.198316 0.250885,-0.567848 0.481485,-1.128423 0.902271,-2.15439 0.39048,-0.152577 0.773831,-0.311968 1.150317,-0.479041 0.376487,-0.167073 0.746484,-0.341395 1.108976,-0.522965 0.362493,-0.18157 0.717587,-0.370824 1.066085,-0.566891 0.348499,-0.196067 0.690239,-0.399218 1.024744,-0.609782 0.334505,-0.210564 0.661858,-0.428129 0.982369,-0.65319 0.320511,-0.225061 0.633994,-0.457557 0.940511,-0.697115 0.306517,-0.239558 0.60613,-0.486468 0.898653,-0.740523 0.292523,-0.254055 0.578267,-0.51538 0.856795,-0.783932 0.278529,-0.268551 0.549886,-0.544291 0.814421,-0.827339 0.264535,-0.283049 0.522022,-0.573202 0.772563,-0.870748 0.25054,-0.297546 0.494157,-0.60263 0.730704,-0.914673 0.236547,-0.312043 0.466294,-0.631025 0.688847,-0.957564 0.222553,-0.32654 0.437913,-0.660453 0.646472,-1.00149 0.208559,-0.341036 0.41005,-0.689364 0.604615,-1.044897 0.194565,-0.355534 0.382185,-0.718275 0.562756,-1.088306 0.180571,-0.37003 0.354321,-0.747186 0.520898,-1.131714 0.03351,-0.07761 0.07851,-0.142861 0.135393,-0.195336 0.05689,-0.05248 0.125415,-0.09255 0.205672,-0.11989 l 4.222999,-1.45209 c 0.05689,-0.01984 0.103683,-0.05653 0.136426,-0.102836 0.03274,-0.0463 0.05116,-0.102215 0.05116,-0.161747 l 0.0026,-5.490104 c 0,-0.03969 -0.0096,-0.06956 -0.02946,-0.0894 -0.01984,-0.01984 -0.04971,-0.02997 -0.0894,-0.02997 l -3.458187,-0.0026 c -0.04498,0 -0.07872,0.0111 -0.100769,0.03359 -0.02205,0.02249 -0.0324,0.05631 -0.03152,0.101286 l 0.0052,1.894458 c 0,0.02913 -0.01519,0.05325 -0.03669,0.06615 -0.0215,0.01289 -0.04928,0.01455 -0.07441,0 l -5.336625,-3.071647 c -0.02514,-0.01455 -0.03772,-0.03909 -0.03772,-0.06356 0,-0.02448 0.01259,-0.04901 0.03772,-0.06356 l 5.334041,-3.06648 c 0.0388,-0.02205 0.06793,-0.02756 0.08733,-0.01654 0.0194,0.01103 0.02894,0.03859 0.02894,0.08268 l -0.0077,1.891874 c 0,0.04411 0.01102,0.07724 0.03307,0.09974 0.02205,0.02249 0.05512,0.03429 0.09922,0.03514 l 3.449919,0.01034 c 0.04145,0 0.07281,-0.01028 0.09353,-0.03101 0.02073,-0.02073 0.03101,-0.05157 0.03101,-0.09302 l -0.0026,-4.976958 c 0,-0.0538 -0.01259,-0.09864 -0.03772,-0.134358 -0.02513,-0.03572 -0.0629,-0.06246 -0.113172,-0.0801 l -4.037479,-1.460376 c -0.05159,-0.01852 -0.09806,-0.04738 -0.136426,-0.08475 -0.03836,-0.03737 -0.06852,-0.08328 -0.08837,-0.134876 -0.159632,-0.410765 -0.327002,-0.813511 -0.502295,-1.208711 -0.175293,-0.395201 -0.358366,-0.782568 -0.54932,-1.162203 -0.190955,-0.379636 -0.38973,-0.751624 -0.596346,-1.115694 -0.206616,-0.364071 -0.421094,-0.72068 -0.643372,-1.069186 -0.222277,-0.348505 -0.452458,-0.689219 -0.690397,-1.02216 -0.237939,-0.33294 -0.483823,-0.657758 -0.737423,-0.975134 C 49.999664,17.353369 49.738078,17.04393 49.468816,16.74212 49.199555,16.440309 48.922782,16.146249 48.637859,15.860003 48.352936,15.573757 48.059944,15.295076 47.75936,15.024395 47.458775,14.753714 47.150597,14.490929 46.834352,14.235813 46.518106,13.980697 46.193708,13.73329 45.861801,13.493739 45.529894,13.254188 45.19031,13.02216 44.842742,12.798174 44.495173,12.574188 44.139887,12.358056 43.776657,12.149635 43.413427,11.941214 43.042438,11.740461 42.663547,11.547605 42.284656,11.354748 41.897963,11.169891 41.503411,10.9926 41.108858,10.815308 40.706463,10.64583 40.296249,10.484104 39.922319,9.7565176 39.735332,9.3928084 39.491131,8.847511 39.246929,8.3022135 38.945335,7.5752614 38.340813,6.1210624 c -0.02293,-0.033514 -0.05034,-0.058691 -0.08165,-0.075448 -0.03131,-0.016757 -0.06676,-0.024805 -0.106453,-0.024805 h -6.005835 z"
         style="fill:#000000;stroke-width:0.264583"
         id="path5"
         inkscape:path-effect="#path-effect7"
         inkscape:original-d="m 32.146875,3.8509277 -7.611938,0.00517 c -0.04234,0 -0.07772,0.010053 -0.105937,0.029456 -0.02822,0.019403 -0.04945,0.048528 -0.06356,0.087333 -0.497417,1.3828875 -0.980846,2.7735927 -1.450041,4.1723552 -0.02778,0.08158 -0.06167,0.1572962 -0.101802,0.2268595 -0.04013,0.069563 -0.08653,0.1331392 -0.13901,0.190686 -0.05248,0.057547 -0.110877,0.1089822 -0.1757,0.1545126 -0.06482,0.04553 -0.135737,0.084825 -0.212907,0.118339 -0.656166,0.2844267 -1.293696,0.5894286 -1.912545,0.9146728 -0.618848,0.3252438 -1.218875,0.6710848 -1.800406,1.0371458 -0.581532,0.366062 -1.144572,0.752223 -1.688786,1.159103 -0.544215,0.406879 -1.069751,0.834395 -1.576648,1.282092 -0.506897,0.447696 -0.995447,0.915535 -1.465027,1.404049 -0.46958,0.488514 -0.92011,0.997707 -1.352372,1.527038 -0.432263,0.529332 -0.845806,1.078846 -1.240751,1.648995 -0.394946,0.570149 -0.771502,1.161019 -1.129131,1.771985 -0.2645823,0.451114 -0.5164541,0.948408 -0.7611933,1.460376 -0.2447393,0.511968 -0.4823067,1.038387 -0.7177857,1.547709 -0.015875,0.03572 -0.038365,0.06741 -0.066146,0.09353 -0.027781,0.02613 -0.060627,0.04671 -0.097669,0.05994 l -4.4875814,1.624707 c -0.075847,0.02734 -0.1326086,0.06772 -0.1705322,0.121956 -0.037923,0.05424 -0.056844,0.12195 -0.056844,0.203089 l -0.013436,15.798519 c -8.82e-4,0.04321 0.00858,0.07934 0.028422,0.108004 0.019844,0.02866 0.049864,0.04997 0.090434,0.06408 1.5063596,0.536223 3.0198206,1.050417 4.5402913,1.542542 0.1684512,0.05468 0.3092319,0.124926 0.4216797,0.211356 0.056224,0.04322 0.1055715,0.09044 0.1477946,0.141594 0.042223,0.05115 0.077198,0.106274 0.1054199,0.165364 0.1778218,0.37207 0.3620867,0.737747 0.5524211,1.096574 0.1903344,0.358827 0.3867814,0.710682 0.5896284,1.056267 0.202847,0.345584 0.411992,0.684651 0.627352,1.016992 0.215359,0.332341 0.436686,0.658103 0.664558,0.977201 0.227873,0.319098 0.462415,0.631555 0.7028,0.937411 0.240385,0.305855 0.486592,0.605007 0.73949,0.897619 0.252897,0.292613 0.51232,0.578976 0.77773,0.858346 0.26541,0.279369 0.537015,0.551911 0.814937,0.818038 0.277923,0.266126 0.562226,0.52588 0.852661,0.778763 0.290436,0.252884 0.586921,0.498816 0.889869,0.738457 0.302947,0.23964 0.612131,0.472784 0.927592,0.699182 0.31546,0.226398 0.637343,0.446236 0.965315,0.659391 0.327973,0.213155 0.662038,0.419689 1.002523,0.619601 0.340485,0.199911 0.687249,0.39314 1.040247,0.579809 0.352998,0.186669 0.71246,0.366593 1.07797,0.540019 0.365511,0.173426 0.737154,0.340561 1.115177,0.500744 0.07541,0.03175 0.141987,0.07855 0.196888,0.136426 0.0549,0.05788 0.09831,0.126648 0.12609,0.202055 l 1.632459,4.487581 c 0.01411,0.0388 0.03534,0.06741 0.06356,0.08682 0.02822,0.0194 0.06309,0.02945 0.10542,0.02945 l 7.599019,0.0036 v -2.168343 h -6.008936 c -0.03969,0 -0.07455,-0.0081 -0.105419,-0.02532 -0.03087,-0.0172 -0.05754,-0.04312 -0.07958,-0.07751 -0.501806,-1.055028 -0.772826,-1.630468 -1.02371,-2.198316 -0.250885,-0.567848 -0.481485,-1.128423 -0.902271,-2.15439 -0.39048,-0.152577 -0.773831,-0.311968 -1.150317,-0.479041 -0.376487,-0.167073 -0.746484,-0.341395 -1.108976,-0.522965 -0.362493,-0.18157 -0.717587,-0.370824 -1.066085,-0.566891 -0.348499,-0.196067 -0.690239,-0.399218 -1.024744,-0.609782 -0.334505,-0.210564 -0.661858,-0.428129 -0.982369,-0.65319 -0.320511,-0.225061 -0.633994,-0.457557 -0.940511,-0.697115 -0.306517,-0.239558 -0.60613,-0.486468 -0.898653,-0.740523 -0.292523,-0.254055 -0.578267,-0.51538 -0.856795,-0.783932 -0.278529,-0.268551 -0.549886,-0.544291 -0.814421,-0.827339 -0.264535,-0.283049 -0.522022,-0.573202 -0.772563,-0.870748 -0.25054,-0.297546 -0.494157,-0.60263 -0.730704,-0.914673 -0.236547,-0.312043 -0.466294,-0.631025 -0.688847,-0.957564 -0.222553,-0.32654 -0.437913,-0.660453 -0.646472,-1.00149 -0.208559,-0.341036 -0.41005,-0.689364 -0.604615,-1.044897 -0.194565,-0.355534 -0.382185,-0.718275 -0.562756,-1.088306 -0.180571,-0.37003 -0.354321,-0.747186 -0.520898,-1.131714 -0.03351,-0.07761 -0.07851,-0.142861 -0.135393,-0.195336 -0.05689,-0.05248 -0.125415,-0.09255 -0.205672,-0.11989 L 6.0931681,39.162467 c -0.056885,-0.01984 -0.1036836,-0.05653 -0.1364257,-0.102836 -0.032742,-0.0463 -0.05116,-0.102215 -0.05116,-0.161747 l -0.00258,-5.490104 c 0,-0.03969 0.00961,-0.06956 0.029456,-0.0894 0.019844,-0.01984 0.049713,-0.02997 0.0894,-0.02997 l 3.4581868,-0.0026 c 0.044979,0 0.078721,0.0111 0.100769,0.03359 0.022048,0.02249 0.032403,0.05631 0.031523,0.101286 l -0.00517,1.894458 c 0,0.02913 0.015193,0.05325 0.03669,0.06615 0.021497,0.01289 0.049279,0.01455 0.074414,0 l 5.3366251,-3.071647 c 0.02514,-0.01455 0.03772,-0.03909 0.03772,-0.06356 0,-0.02448 -0.01259,-0.04901 -0.03772,-0.06356 l -5.3340413,-3.06648 c -0.038805,-0.02205 -0.06793,-0.02756 -0.087333,-0.01654 -0.019403,0.01103 -0.028939,0.03859 -0.028939,0.08268 l 0.00775,1.891874 c 0,0.04411 -0.011024,0.07724 -0.033073,0.09974 -0.022049,0.02249 -0.055122,0.03429 -0.099219,0.03514 l -3.4499186,0.01034 c -0.041452,0 -0.072809,-0.01028 -0.093534,-0.03101 -0.020726,-0.02073 -0.031006,-0.05157 -0.031006,-0.09302 l 0.00258,-4.976958 c 0,-0.0538 0.012588,-0.09864 0.037724,-0.134358 0.025135,-0.03572 0.062901,-0.06246 0.1131714,-0.0801 l 4.0374793,-1.460376 c 0.05159,-0.01852 0.09806,-0.04738 0.136426,-0.08475 0.03836,-0.03737 0.06852,-0.08328 0.08837,-0.134876 0.159632,-0.410765 0.327002,-0.813511 0.502295,-1.208711 0.175293,-0.395201 0.358366,-0.782568 0.54932,-1.162203 0.190955,-0.379636 0.38973,-0.751624 0.596346,-1.115694 0.206616,-0.364071 0.421094,-0.72068 0.643372,-1.069186 0.222277,-0.348505 0.452458,-0.689219 0.690397,-1.02216 0.237939,-0.33294 0.483823,-0.657758 0.737423,-0.975134 0.2536,-0.317376 0.515186,-0.626815 0.784448,-0.928625 0.269261,-0.301811 0.546034,-0.595871 0.830957,-0.882117 0.284923,-0.286246 0.577915,-0.564927 0.878499,-0.835608 0.300585,-0.270681 0.608763,-0.533466 0.925008,-0.788582 0.316246,-0.255116 0.640644,-0.502523 0.972551,-0.742074 0.331907,-0.239551 0.671491,-0.471579 1.019059,-0.695565 0.347569,-0.223986 0.702855,-0.440118 1.066085,-0.648539 0.36323,-0.208421 0.734219,-0.409174 1.11311,-0.60203 0.378891,-0.192857 0.765584,-0.377714 1.160136,-0.555005 0.394553,-0.177292 0.796948,-0.34677 1.207162,-0.508496 0.37393,-0.7275864 0.560917,-1.0912956 0.805118,-1.636593 0.244202,-0.5452975 0.545796,-1.2722496 1.150318,-2.7264486 0.02293,-0.033514 0.05034,-0.058691 0.08165,-0.075448 0.03131,-0.016757 0.06676,-0.024805 0.106453,-0.024805 h 6.005835 z" /><path
         fill="#000000"
         d="M 7.0696966,21.509302 4.6011342,22.42476 C 4.5720302,22.43534 4.5429262,22.40624 4.5535092,22.37713 7.5327175,13.997781 13.977967,7.6319066 22.344092,4.5997816 c 0.0291,-0.010583 0.05821,0.015875 0.04763,0.044979 l -0.896938,2.460625 c -0.01058,0.03175 -0.03439,0.058208 -0.06614,0.071438 -6.63576,2.9130629 -11.295072,7.7178959 -14.2875099,14.2663329 -0.013229,0.03175 -0.039687,0.05556 -0.071438,0.06615 z"
         id="path11"
         style="fill:#000000;fill-opacity:1;stroke-width:0.264583"
         sodipodi:nodetypes="cccccccccc" /><path
         fill="#000000"
         d="m 59.451904,22.165468 c 0.02646,0.06879 -0.03969,0.134938 -0.105833,0.111125 L 57.115633,21.482844 C 56.991279,21.44051 56.893383,21.350552 56.840466,21.231489 54.134661,15.281893 49.873105,10.815726 44.0558,7.8329899 43.812383,7.7086358 43.627175,7.4916774 43.539862,7.2323858 L 42.902217,5.3353233 c -0.08114,-0.2416528 -0.0044,-0.3113264 0.230187,-0.2090208 7.828139,3.3919583 13.267972,9.0716805 16.3195,17.0391655 z"
         id="path12"
         style="fill:#000000;fill-opacity:1;stroke-width:0.264583"
         sodipodi:nodetypes="ccccccccc" /><path
         fill="#000000"
         d="m 5.3869467,42.87176 c 0.6702777,0.250473 1.3387916,0.508001 2.0055416,0.772583 0.2275417,0.0926 0.4021667,0.177271 0.523875,0.415396 2.9421667,5.760861 7.3765837,9.999486 13.3032497,12.715875 0.100541,0.04498 0.177271,0.129646 0.214312,0.232833 l 0.746125,2.029354 c 0.04233,0.116417 0.0053,0.15434 -0.111125,0.113771 -7.784041,-2.794 -13.70277,-8.657166 -16.9624367,-16.176625 -0.023813,-0.05556 0.00794,-0.119062 0.066146,-0.134937 0.051153,-0.01235 0.1225901,-0.0018 0.2143124,0.03175 z"
         id="path16"
         style="fill:#000000;fill-opacity:1;stroke-width:0.264583"
         sodipodi:nodetypes="cccccccccc" /><path
         fill="#000000"
         d="m 58.875112,43.228947 c -3.384903,7.381875 -8.669514,12.559771 -15.853833,15.533688 -0.02646,0.01058 -0.05292,-0.01588 -0.04233,-0.04233 l 0.788458,-2.230437 c 0.01058,-0.03175 0.0344,-0.05821 0.0635,-0.07144 5.554484,-2.725209 9.738427,-6.844772 12.55183,-12.358689 0.119063,-0.232833 0.322792,-0.407458 0.5715,-0.489479 l 1.7145,-0.5715 c 0.245181,-0.08114 0.313972,-0.0044 0.206375,0.230187 z"
         id="path17"
         style="fill:#000000;fill-opacity:1;stroke-width:0.264583"
         sodipodi:nodetypes="ccccccccc" /></g></g></svg>
